<svg width="2400" height="651" viewBox="0 0 2400 651" fill="none" xmlns="http://www.w3.org/2000/svg">
<rect x="2.7232" y="2.7232" width="2394.55" height="644.866" rx="106.205" fill="white"/>
<rect x="2.7232" y="2.7232" width="2394.55" height="644.866" rx="106.205" stroke="#4215CC" stroke-width="5.44641"/>
<path d="M845.799 196L846.165 191.312C851.585 190.287 854.661 189.53 855.394 189.042C855.833 188.7 856.224 188.139 856.565 187.357C857.249 185.844 858.763 178.593 861.106 165.604C863.45 152.567 865.94 138.114 868.577 122.245C870.335 111.796 871.214 105.253 871.214 102.616C871.214 101.542 871.019 100.785 870.628 100.346C870.237 99.8574 869.334 99.4424 867.918 99.1006C866.893 98.9053 864.793 98.7344 861.619 98.5879L858.763 98.4414H857.664L858.104 93.5342L881.248 93.9004C882.127 93.9004 887.205 93.7783 896.482 93.5342C900.73 93.4365 904.588 93.3877 908.055 93.3877C915.281 93.3877 920.97 94.0713 925.12 95.4385C929.319 96.7568 932.664 99.0273 935.154 102.25C937.645 105.424 938.89 109.306 938.89 113.896C938.89 117.411 938.084 120.805 936.473 124.076C934.91 127.348 932.591 130.204 929.515 132.646C926.487 135.087 923.167 136.991 919.554 138.358C918.479 138.798 914.695 139.872 908.201 141.581C915.33 142.411 920.652 143.681 924.168 145.39C927.732 147.05 930.394 149.491 932.151 152.714C933.909 155.888 934.788 159.574 934.788 163.773C934.788 168.559 933.665 172.904 931.419 176.811C929.173 180.668 926.341 183.939 922.923 186.625C919.505 189.262 915.745 191.361 911.644 192.924C905.735 195.17 899.388 196.293 892.601 196.293C889.476 196.293 885.472 196.146 880.589 195.854C874.144 195.512 868.846 195.341 864.695 195.341C861.033 195.341 854.734 195.561 845.799 196ZM884.031 139.677C885.887 139.774 887.742 139.823 889.598 139.823C894.139 139.823 897.703 139.604 900.291 139.164C902.879 138.676 905.271 137.87 907.469 136.747C909.715 135.575 911.668 134.013 913.328 132.06C914.988 130.106 916.331 127.567 917.356 124.442C918.431 121.269 918.968 118.217 918.968 115.287C918.968 112.455 918.333 109.892 917.063 107.597C915.794 105.253 914.134 103.593 912.083 102.616C909.153 101.151 904.783 100.419 898.973 100.419C896.482 100.419 893.846 100.565 891.062 100.858L890.696 102.982L887.4 120.341C885.545 131.034 884.422 137.479 884.031 139.677ZM876.048 187.87C883.909 189.091 889.476 189.701 892.747 189.701C897.776 189.701 901.829 188.627 904.905 186.479C907.981 184.281 910.35 181.01 912.01 176.664C913.67 172.27 914.5 168.07 914.5 164.066C914.5 159.916 913.67 156.449 912.01 153.666C910.35 150.834 908.03 148.856 905.052 147.733C902.122 146.562 897.337 145.976 890.696 145.976C889.378 145.976 886.741 146.024 882.786 146.122C882.542 147.929 881.126 156.425 878.538 171.61C877.854 175.468 877.024 180.888 876.048 187.87ZM949.656 144.364L947.898 140.263C956.932 133.671 963.768 129.276 968.406 127.079C971.678 125.565 974.339 124.809 976.39 124.809C977.854 124.809 979.002 125.272 979.832 126.2C980.711 127.079 981.15 128.495 981.15 130.448C981.15 132.06 980.979 133.817 980.638 135.722C980.052 138.847 978.855 143.803 977.049 150.59C973.533 164.018 971.385 172.636 970.604 176.444C970.066 178.935 969.798 180.79 969.798 182.011C969.798 183.036 970.042 183.793 970.53 184.281C971.019 184.77 971.629 185.014 972.361 185.014C973.338 185.014 974.485 184.599 975.804 183.769C977.903 182.499 980.564 180.033 983.787 176.371C987.01 172.709 989.72 168.998 991.917 165.238C995.677 158.891 998.582 152.348 1000.63 145.609C1002.68 138.822 1003.9 133.036 1004.29 128.251C1009.81 127.909 1015.13 126.957 1020.26 125.395L1021.51 126.64C1019.6 132.694 1017.21 141.117 1014.33 151.908C1011.45 162.699 1009.57 170.561 1008.69 175.492C1008.15 178.715 1007.88 181.059 1007.88 182.523C1007.88 183.451 1008.08 184.135 1008.47 184.574C1008.86 185.014 1009.37 185.233 1010.01 185.233C1010.74 185.233 1011.52 185.014 1012.35 184.574C1013.52 183.939 1016.36 181.986 1020.85 178.715L1022.24 182.816L1014.11 189.042C1010.94 191.386 1008.13 193.314 1005.69 194.828C1003.25 196.293 1001.19 197.27 999.534 197.758C998.362 198.1 997.239 198.271 996.165 198.271C994.749 198.271 993.577 197.758 992.649 196.732C991.771 195.756 991.331 194.267 991.331 192.265C991.331 191.239 991.429 190.165 991.624 189.042C992.015 186.503 992.723 183.109 993.748 178.861L997.923 162.821C995.677 166.972 993.431 170.561 991.185 173.588C987.474 178.666 983.25 183.427 978.514 187.87C973.777 192.313 969.407 195.463 965.403 197.318C963.255 198.295 961.302 198.783 959.544 198.783C957.396 198.783 955.662 198.051 954.344 196.586C953.025 195.17 952.366 193.07 952.366 190.287C952.366 188.48 952.586 186.43 953.025 184.135C953.318 182.426 954.393 178.153 956.248 171.317C958.689 162.284 960.423 155.082 961.448 149.711C962.181 145.805 962.547 143.144 962.547 141.728C962.547 140.604 962.352 139.799 961.961 139.311C961.57 138.822 961.058 138.578 960.423 138.578C959.007 138.578 955.418 140.507 949.656 144.364ZM1056.59 102.689C1056.59 99.4668 1057.57 96.8545 1059.52 94.8525C1061.52 92.8018 1063.96 91.7764 1066.84 91.7764C1069.29 91.7764 1071.24 92.5332 1072.7 94.0469C1074.22 95.5117 1074.97 97.4648 1074.97 99.9062C1074.97 103.373 1074.02 106.181 1072.12 108.329C1070.21 110.429 1067.8 111.479 1064.87 111.479C1062.28 111.479 1060.25 110.722 1058.79 109.208C1057.32 107.694 1056.59 105.521 1056.59 102.689ZM1033.96 146.928L1032.13 143.046L1042.16 135.648C1047.29 132.035 1050.73 129.74 1052.49 128.764C1055.32 127.201 1057.83 126.078 1060.03 125.395C1061.4 125.004 1062.6 124.809 1063.62 124.809C1064.79 124.809 1065.82 125.297 1066.7 126.273C1067.62 127.25 1068.09 128.593 1068.09 130.302C1068.09 132.157 1067.89 134.086 1067.5 136.088C1066.87 139.213 1065.11 146.024 1062.23 156.522C1059.35 167.021 1057.57 173.905 1056.88 177.177C1056.2 180.399 1055.86 182.523 1055.86 183.549C1055.86 184.33 1056.05 184.94 1056.44 185.38C1056.88 185.819 1057.35 186.039 1057.83 186.039C1058.42 186.039 1059.35 185.697 1060.62 185.014C1063.5 183.5 1066.72 181.522 1070.29 179.081L1072.26 182.963C1068.41 185.697 1064.04 188.651 1059.15 191.825C1054.27 194.95 1050.68 196.928 1048.39 197.758C1046.92 198.295 1045.51 198.563 1044.14 198.563C1042.48 198.563 1041.11 197.929 1040.04 196.659C1038.96 195.438 1038.43 193.534 1038.43 190.946C1038.43 188.896 1038.65 186.771 1039.08 184.574C1039.62 181.645 1040.89 176.42 1042.89 168.9C1047 153.373 1049.05 144.242 1049.05 141.508C1049.05 140.873 1048.88 140.385 1048.53 140.043C1048.24 139.701 1047.85 139.53 1047.36 139.53C1045.41 139.53 1040.94 141.996 1033.96 146.928ZM1119.65 178.935L1121.85 182.89L1108.01 192.265C1104.1 194.804 1100.93 196.562 1098.48 197.538C1096.73 198.222 1095.12 198.563 1093.65 198.563C1091.94 198.563 1090.65 198.002 1089.77 196.879C1088.5 195.316 1087.86 193.144 1087.86 190.36C1087.86 187.919 1088.23 184.672 1088.96 180.619C1090.09 174.369 1090.82 170.438 1091.16 168.827L1102.44 118.363L1104.12 109.867C1104.56 107.572 1104.86 105.814 1105 104.594C1105.1 103.812 1105.15 103.129 1105.15 102.543C1105.15 101.469 1104.93 100.663 1104.49 100.126C1104.1 99.5889 1103.42 99.2227 1102.44 99.0273C1101.51 98.832 1098.24 98.71 1092.62 98.6611L1093.36 94.3398C1104.05 93.0703 1114.18 90.7754 1123.75 87.4551L1125.58 89.0664L1117.67 122.904L1108.67 164.726C1106.81 172.733 1105.76 177.958 1105.52 180.399C1105.42 181.278 1105.37 182.06 1105.37 182.743C1105.37 183.769 1105.56 184.525 1105.96 185.014C1106.35 185.502 1106.81 185.746 1107.35 185.746C1108.13 185.746 1109.32 185.331 1110.94 184.501C1113.62 183.183 1116.53 181.327 1119.65 178.935ZM1177.66 176.957L1179.49 181.059C1176.95 183.061 1172.95 185.941 1167.48 189.701C1162.01 193.461 1157.64 196 1154.37 197.318C1152.17 198.148 1150.27 198.563 1148.66 198.563C1145.77 198.563 1143.63 197.685 1142.21 195.927C1140.79 194.12 1140.09 191.85 1140.09 189.115C1140.09 187.406 1140.33 185.233 1140.82 182.597C1141.16 180.595 1143.06 171.781 1146.53 156.156C1148.83 145.658 1150.22 138.92 1150.71 135.941H1134.59L1135.54 131.986C1139.79 131.107 1145.51 129.423 1152.68 126.933C1152.78 125.761 1153.12 123.441 1153.71 119.975C1154.64 114.506 1155.1 110.038 1155.1 106.571C1157.54 106.034 1159.93 105.375 1162.28 104.594L1173.41 100.712L1175.1 102.543C1173.48 107.279 1171.26 115.824 1168.43 128.178H1175.97C1180.96 128.178 1185.2 127.982 1188.72 127.592L1189.3 128.178C1188.23 132.23 1187.57 135.014 1187.33 136.527C1183.03 136.137 1178.78 135.941 1174.58 135.941H1166.82C1166.53 137.357 1165.53 141.703 1163.82 148.979C1163.77 149.223 1162.23 156.718 1159.2 171.464C1158.27 176.103 1157.71 179.154 1157.52 180.619C1157.42 181.449 1157.37 182.182 1157.37 182.816C1157.37 183.988 1157.69 184.892 1158.32 185.526C1158.96 186.161 1159.81 186.479 1160.89 186.479C1162.4 186.479 1164.26 185.868 1166.45 184.647C1170.46 182.401 1174.19 179.838 1177.66 176.957ZM1227.32 146.195C1229.61 139.701 1231.08 135.282 1231.71 132.938C1232.4 130.595 1232.88 128.373 1233.18 126.273C1236.01 125.688 1238.45 125.395 1240.5 125.395C1242.75 125.395 1245.36 125.541 1248.34 125.834C1253.95 126.322 1258.13 126.566 1260.86 126.566C1265.21 126.566 1268.77 126.005 1271.56 124.882L1273.68 127.299C1269.14 132.328 1265.23 137.87 1261.96 143.925C1258.74 149.931 1256.37 155.937 1254.86 161.942C1253.93 165.604 1253.46 169.535 1253.46 173.734C1253.46 179.74 1254.39 183.866 1256.25 186.112C1257.62 187.821 1259.25 188.676 1261.16 188.676C1262.38 188.676 1263.72 188.31 1265.18 187.577C1267.09 186.601 1269.09 184.892 1271.19 182.45C1274.41 178.739 1277.05 174.76 1279.1 170.512C1281.15 166.264 1282.81 161.967 1284.08 157.621C1285.35 153.275 1286.81 147.221 1288.47 139.457C1289.55 134.281 1290.06 130.741 1290.01 128.837C1296.17 127.763 1301.49 126.469 1305.98 124.955L1307.88 126.273C1306.61 130.131 1305.08 135.819 1303.27 143.339C1301.46 150.858 1300.36 155.57 1299.97 157.475C1299.44 160.307 1298.92 163.603 1298.44 167.362C1298 171.122 1297.78 174.32 1297.78 176.957C1297.78 181.107 1298.58 184.135 1300.19 186.039C1301.85 187.943 1303.9 188.896 1306.35 188.896C1308.79 188.847 1311.79 187.479 1315.35 184.794C1320.53 179.569 1324.46 173.319 1327.15 166.044C1329.83 158.769 1331.17 151.884 1331.17 145.39C1331.17 142.362 1330.64 140.238 1329.56 139.018C1328.49 137.748 1327 137.113 1325.1 137.113C1323.68 137.113 1322.17 137.431 1320.55 138.065L1318.5 134.623C1322.56 131.84 1326.02 128.91 1328.9 125.834C1330.52 125.492 1331.88 125.321 1333.01 125.321C1334.71 125.321 1336.18 125.736 1337.4 126.566C1339.35 127.836 1340.82 129.545 1341.79 131.693C1342.82 133.842 1343.33 136.625 1343.33 140.043C1343.33 147.416 1341.38 155.18 1337.47 163.334C1334.35 169.779 1330.32 175.858 1325.39 181.571C1320.46 187.284 1315.48 191.557 1310.45 194.389C1305.47 197.172 1300.97 198.563 1296.97 198.563C1293.5 198.563 1290.31 197.245 1287.38 194.608C1284.45 191.972 1282.98 187.65 1282.98 181.645C1282.98 178.959 1283.45 175.102 1284.37 170.072L1279.69 178.129C1278.42 180.229 1276.8 182.401 1274.85 184.647C1271.78 188.261 1268.82 191.117 1265.99 193.217C1263.21 195.316 1260.62 196.781 1258.23 197.611C1256.47 198.246 1254.56 198.563 1252.51 198.563C1248.17 198.563 1244.48 196.806 1241.45 193.29C1238.47 189.774 1236.99 184.623 1236.99 177.836C1236.99 173.246 1237.77 168.754 1239.33 164.359C1240.94 159.965 1243.58 155.424 1247.24 150.736C1249.88 147.27 1254.86 141.85 1262.18 134.477C1260.47 135.014 1259.1 135.355 1258.08 135.502C1257.05 135.648 1256.08 135.746 1255.15 135.795L1248.04 136.015L1242.48 135.868C1241.06 135.868 1239.7 135.941 1238.38 136.088C1237.11 136.234 1236.2 136.845 1235.67 137.919C1235.13 138.993 1234.54 140.263 1233.91 141.728C1232.93 143.925 1232.25 145.414 1231.86 146.195H1227.32ZM1377.39 102.689C1377.39 99.4668 1378.37 96.8545 1380.32 94.8525C1382.32 92.8018 1384.76 91.7764 1387.64 91.7764C1390.09 91.7764 1392.04 92.5332 1393.5 94.0469C1395.02 95.5117 1395.77 97.4648 1395.77 99.9062C1395.77 103.373 1394.82 106.181 1392.92 108.329C1391.01 110.429 1388.6 111.479 1385.67 111.479C1383.08 111.479 1381.05 110.722 1379.59 109.208C1378.12 107.694 1377.39 105.521 1377.39 102.689ZM1354.76 146.928L1352.93 143.046L1362.96 135.648C1368.09 132.035 1371.53 129.74 1373.29 128.764C1376.12 127.201 1378.64 126.078 1380.83 125.395C1382.2 125.004 1383.4 124.809 1384.42 124.809C1385.59 124.809 1386.62 125.297 1387.5 126.273C1388.43 127.25 1388.89 128.593 1388.89 130.302C1388.89 132.157 1388.69 134.086 1388.3 136.088C1387.67 139.213 1385.91 146.024 1383.03 156.522C1380.15 167.021 1378.37 173.905 1377.68 177.177C1377 180.399 1376.66 182.523 1376.66 183.549C1376.66 184.33 1376.85 184.94 1377.24 185.38C1377.68 185.819 1378.15 186.039 1378.64 186.039C1379.22 186.039 1380.15 185.697 1381.42 185.014C1384.3 183.5 1387.52 181.522 1391.09 179.081L1393.06 182.963C1389.21 185.697 1384.84 188.651 1379.95 191.825C1375.07 194.95 1371.48 196.928 1369.19 197.758C1367.72 198.295 1366.31 198.563 1364.94 198.563C1363.28 198.563 1361.91 197.929 1360.84 196.659C1359.76 195.438 1359.23 193.534 1359.23 190.946C1359.23 188.896 1359.45 186.771 1359.89 184.574C1360.42 181.645 1361.69 176.42 1363.69 168.9C1367.8 153.373 1369.85 144.242 1369.85 141.508C1369.85 140.873 1369.68 140.385 1369.33 140.043C1369.04 139.701 1368.65 139.53 1368.16 139.53C1366.21 139.53 1361.74 141.996 1354.76 146.928ZM1448.51 176.957L1450.34 181.059C1447.8 183.061 1443.8 185.941 1438.33 189.701C1432.86 193.461 1428.49 196 1425.22 197.318C1423.02 198.148 1421.12 198.563 1419.5 198.563C1416.62 198.563 1414.48 197.685 1413.06 195.927C1411.64 194.12 1410.94 191.85 1410.94 189.115C1410.94 187.406 1411.18 185.233 1411.67 182.597C1412.01 180.595 1413.91 171.781 1417.38 156.156C1419.68 145.658 1421.07 138.92 1421.56 135.941H1405.44L1406.39 131.986C1410.64 131.107 1416.36 129.423 1423.53 126.933C1423.63 125.761 1423.97 123.441 1424.56 119.975C1425.49 114.506 1425.95 110.038 1425.95 106.571C1428.39 106.034 1430.78 105.375 1433.13 104.594L1444.26 100.712L1445.95 102.543C1444.33 107.279 1442.11 115.824 1439.28 128.178H1446.82C1451.8 128.178 1456.05 127.982 1459.57 127.592L1460.15 128.178C1459.08 132.23 1458.42 135.014 1458.18 136.527C1453.88 136.137 1449.63 135.941 1445.43 135.941H1437.67C1437.38 137.357 1436.38 141.703 1434.67 148.979C1434.62 149.223 1433.08 156.718 1430.05 171.464C1429.12 176.103 1428.56 179.154 1428.37 180.619C1428.27 181.449 1428.22 182.182 1428.22 182.816C1428.22 183.988 1428.54 184.892 1429.17 185.526C1429.81 186.161 1430.66 186.479 1431.74 186.479C1433.25 186.479 1435.11 185.868 1437.3 184.647C1441.31 182.401 1445.04 179.838 1448.51 176.957ZM1460.89 197.978L1459.42 196.586C1461.91 188.09 1463.96 180.131 1465.57 172.709C1466.6 168.021 1468.89 156.449 1472.46 137.992C1475.14 124.223 1476.95 113.847 1477.88 106.864C1478.22 104.179 1478.39 102.47 1478.39 101.737C1478.39 100.468 1477.76 99.6133 1476.49 99.1738C1475.75 98.9297 1472.31 98.7588 1466.16 98.6611L1466.97 94.1934C1471.6 93.8516 1476.63 93.0703 1482.05 91.8496C1487.52 90.5801 1492.45 89.1396 1496.85 87.5283L1498.39 88.7734C1497.65 91.6055 1496.58 96.0977 1495.16 102.25C1492.67 113.139 1490.94 120.878 1489.96 125.468L1482.93 158.427C1486.3 153.3 1489.33 149.198 1492.01 146.122C1496.02 141.532 1499.78 137.846 1503.29 135.062C1505.88 132.963 1508.69 131.059 1511.72 129.35C1514.79 127.592 1517.43 126.347 1519.63 125.614C1521.24 125.126 1522.9 124.882 1524.61 124.882C1526.66 124.882 1528.17 125.395 1529.15 126.42C1530.17 127.445 1530.69 129.057 1530.69 131.254C1530.69 133.061 1530.54 134.818 1530.25 136.527C1529.32 141.264 1527.71 147.538 1525.41 155.351C1521.07 170.194 1518.89 179.325 1518.89 182.743C1518.89 183.964 1519.07 184.818 1519.41 185.307C1519.8 185.746 1520.31 185.966 1520.95 185.966C1521.68 185.966 1522.51 185.746 1523.44 185.307C1524.8 184.623 1527.71 182.694 1532.15 179.521L1533.84 183.476C1525.34 189.774 1519.21 193.876 1515.45 195.78C1511.69 197.636 1508.74 198.563 1506.59 198.563C1505.12 198.563 1503.88 197.953 1502.85 196.732C1501.88 195.512 1501.39 193.607 1501.39 191.02C1501.39 189.359 1501.58 187.431 1501.98 185.233C1502.27 183.622 1503.51 178.715 1505.71 170.512C1510.2 153.52 1512.45 143.949 1512.45 141.801C1512.45 140.824 1512.21 140.067 1511.72 139.53C1511.23 138.993 1510.59 138.725 1509.81 138.725C1508.49 138.725 1506.83 139.286 1504.83 140.409C1501.46 142.313 1497.87 145.536 1494.07 150.077C1490.31 154.618 1486.96 160.087 1484.03 166.483C1481.88 171.073 1479.83 177.421 1477.88 185.526C1476.9 189.384 1476.39 192.582 1476.34 195.121C1474.83 195.17 1472.87 195.414 1470.48 195.854C1465.84 196.781 1462.64 197.489 1460.89 197.978Z" fill="#4215CC"/>
<rect width="2200" height="450" transform="translate(100 120.312)" fill="white"/>
<path d="M170.714 202.862L160 217.698C166.633 222.813 178.367 227.417 190.102 224.348C197.245 229.975 208.129 229.123 213.571 228.952C212.721 237.819 211.531 266.399 213.571 309.779C215.612 353.16 247.075 382.762 262.551 392.141L249.286 451.483L262.551 510.312H292.143L280.918 451.483L292.143 392.141L317.653 510.312H347.755L322.755 392.141H387.041L362.041 510.312H392.653L417.653 392.141L429.388 451.483L417.653 510.312H448.265L460 451.483L447.755 392.141C450.306 385.491 451.663 382.893 453.367 375.771C462.551 337.404 445.204 306.369 435 294.944L410.51 269.877C399.796 259.134 381.429 258.623 369.694 268.343C361.067 275.488 356.181 275.882 347.755 268.343C344.184 265.273 335.355 254.913 323.776 245.322C312.041 235.602 291.633 239.695 283.98 247.88L249.286 282.666V189.562L256 180.312C233.891 184.746 188.878 191.915 183.98 193.143C179.082 194.37 173.095 200.134 170.714 202.862Z" fill="#4215CC"/>
<path d="M209.429 203.027L216.572 196.149L223.714 203.027L216.572 210.434L209.429 203.027Z" fill="white"/>
<path d="M540 387.454C540 355.298 550.172 328.883 570.516 308.211C580.032 298.476 591.079 290.711 603.657 284.914C624.986 275.179 649.759 270.312 677.978 270.312C692.635 270.312 705.596 271.46 716.862 273.757C728.127 275.945 741.417 280.101 756.729 286.226L758.698 289.836C756.401 299.57 753.831 316.742 750.987 341.352H737.862L736.221 312.477C728.237 304.93 720.963 299.68 714.401 296.726C703.244 291.695 690.611 289.179 676.502 289.179C646.205 289.179 623.29 299.844 607.759 321.172C596.165 337.032 590.368 357.54 590.368 382.696C590.368 412.009 597.915 435.908 613.009 454.393C631.165 476.705 656.267 487.862 688.314 487.862C710.19 487.862 732.01 482.119 753.776 470.635L757.714 474.737L750.331 491.143C740.925 496.284 733.049 499.893 726.706 501.971C711.174 507.112 693.838 509.682 674.697 509.682C646.478 509.682 622.087 504.542 601.524 494.26C587.415 487.26 575.274 477.526 565.102 465.057C548.367 444.494 540 418.626 540 387.454Z" fill="#4215CC"/>
<path d="M778.73 509.682V492.456L788.738 491.471C796.066 490.815 802.355 484.088 807.605 471.291L868.473 324.125L887.669 273.429H911.458L998.412 476.705C1002.24 485.455 1008.42 490.377 1016.95 491.471L1024.99 492.456V509.682C995.678 509.026 978.221 509.682 972.206 509.682C965.534 509.682 948.263 509.026 920.81 509.682V492.456L938.693 491.471C940.552 491.362 942.083 490.432 943.287 488.682C944.599 486.932 945.255 484.854 945.255 482.448C945.255 479.385 944.599 476.268 943.287 473.096L928.193 434.705H843.863L829.754 472.276C828.769 475.119 828.277 477.908 828.277 480.643C828.277 483.596 829.152 486.112 830.902 488.19C832.762 490.268 835.113 491.362 837.957 491.471L854.692 492.456V509.704C846.16 509.486 839.27 509.8 835.004 509.691C825.926 509.363 819.728 509.682 816.337 509.682H778.73ZM852.067 415.837H920.482L885.536 330.524L852.067 415.837Z" fill="#4215CC"/>
<path d="M1044.04 509.682V492.456L1056.51 491.471C1063.07 490.924 1067.28 489.557 1069.14 487.37C1071.44 484.745 1072.59 475.119 1072.59 458.494V321.5C1072.59 306.516 1071.76 297.437 1070.12 294.265C1068.59 290.984 1064.05 289.07 1056.51 288.523L1044.04 287.539V275.07L1061.1 275.562C1072.26 275.89 1078.66 276.054 1080.3 276.054H1084.4L1124.76 275.07C1137.45 302.633 1145.81 320.68 1149.86 329.211L1203.02 440.119L1264.38 312.969C1267.44 306.953 1272.96 294.32 1280.95 275.07C1304.24 275.726 1317.1 276.054 1319.5 276.054C1322.02 276.054 1335.03 275.726 1358.55 275.07V287.539L1346.08 288.523C1339.52 289.07 1335.25 290.437 1333.28 292.625C1331.1 295.25 1330 304.875 1330 321.5V458.494C1330 473.588 1330.71 482.557 1332.14 485.401C1333.56 488.135 1338.21 489.831 1346.08 490.487L1358.55 491.471V509.682C1333.5 509.026 1316.25 509.682 1306.41 509.682C1296.46 509.682 1278.87 509.026 1254.04 509.682V491.471L1266.51 490.487C1273.51 489.94 1277.83 488.737 1279.47 486.877C1281.55 484.58 1282.59 475.119 1282.59 458.494V318.711L1213.35 462.924C1204.6 481.08 1197.88 495.846 1193.17 507.221H1181.85C1175.95 493.221 1171.9 483.924 1169.71 479.33L1092.44 318.383V458.494C1092.44 473.479 1093.2 482.612 1094.73 485.893C1096.27 489.065 1100.86 490.924 1108.52 491.471L1120.98 492.456V509.682C1101.07 509.682 1088.75 509.682 1082.41 509.682C1075.95 509.682 1063.62 509.026 1044.04 509.682Z" fill="#4215CC"/>
<path d="M1384.34 287.539V275.07C1414.31 275.726 1435.42 276.054 1447.67 276.054C1457.95 276.054 1472.5 275.836 1491.31 275.398C1507.39 275.07 1519.47 274.906 1527.57 274.906C1538.72 274.906 1549.33 275.289 1559.4 276.054L1561.36 278.351L1556.77 326.258H1544.63L1542.01 300.992C1541.79 299.242 1538.51 297.765 1532.16 296.562C1525.93 295.25 1518.33 294.594 1509.36 294.594C1491.97 294.594 1475.61 294.922 1460.3 295.578V376.298C1465.99 376.735 1473.48 376.954 1482.78 376.954H1504.93C1512.15 376.954 1517.07 376.462 1519.69 375.477C1522.32 374.493 1523.79 372.634 1524.12 369.899L1526.09 350.704H1539.54C1539.44 356.063 1539.33 360.11 1539.22 362.844C1538.78 373.892 1538.56 380.618 1538.56 383.024C1538.56 384.884 1538.56 386.087 1538.56 386.634L1539.54 422.892H1526.09L1524.12 406.158C1523.58 401.673 1521.83 398.501 1518.87 396.642C1515.92 394.673 1511.27 393.689 1504.93 393.689H1482.78C1476.11 393.689 1468.61 394.017 1460.3 394.673V484.416C1476.71 485.291 1491.42 485.729 1504.43 485.729C1521.28 485.729 1534.24 484.034 1543.32 480.643C1543.86 480.424 1544.19 480.151 1544.3 479.823L1552.01 448.158H1565.14L1561.36 501.315L1560.41 509.844C1544.77 510.829 1527.74 509.955 1511.88 509.955C1495.25 509.955 1477.21 510.475 1457.75 509.819C1448.67 509.491 1441.53 509.682 1436.28 509.682C1428.73 509.682 1415.51 509.026 1395.5 509.682V497.213L1406.16 491.143C1410.64 488.627 1412.89 482.229 1412.89 471.947V321.5C1412.89 306.516 1412.07 297.437 1410.43 294.265C1408.89 291.094 1404.36 289.179 1396.81 288.523L1384.34 287.539Z" fill="#4215CC"/>
<path d="M1589.75 288.523V275.07C1616.76 275.726 1634.16 276.054 1641.92 276.054C1649.58 276.054 1667.02 275.726 1694.26 275.07V288.523L1681.79 289.508C1674.68 290.054 1670.3 291.258 1668.66 293.117C1666.69 295.523 1665.71 304.984 1665.71 321.5V484.416C1681.57 485.291 1696.28 485.729 1709.84 485.729C1727.02 485.729 1739.98 484.034 1748.73 480.643C1749.27 480.424 1749.6 480.151 1749.71 479.823L1757.42 445.533H1770L1766.77 501.315L1764.82 509.819C1749.18 510.803 1733.08 509.819 1717.22 509.819C1700.59 509.819 1683.48 510.475 1664.01 509.819C1654.94 509.491 1646.86 509.819 1641.61 509.819C1634.07 509.819 1620.92 509.162 1600.9 509.819V497.213L1611.57 491.143C1616.05 488.627 1618.3 482.284 1618.3 472.112V321.5C1618.3 306.516 1617.58 297.601 1616.16 294.758C1614.74 291.914 1610.09 290.164 1602.22 289.508L1589.75 288.523Z" fill="#4215CC"/>
<path d="M1780 399.748C1780.92 397.01 1781.91 394.142 1782.96 391.143C1784.73 386.254 1786.04 382.311 1786.9 379.312H1856.23L1858 381.366C1854.85 388.666 1852.71 395.315 1851.59 401.312H1781.58L1780 399.748Z" fill="#4215CC"/>
<path d="M1868 510.289V492.925L1878.01 491.941C1885.34 491.285 1891.63 484.558 1896.88 471.761L1957.74 324.595L1977 270.312H2001L2087.68 477.175C2091.51 485.925 2097.69 490.847 2106.22 491.941L2114.26 492.925V510.289C2085 510.289 2067.16 510.289 2061.15 510.289C2054.48 510.289 2037 510.289 2010.08 510.289V492.925L2027.96 491.941C2029.82 491.832 2031.35 490.902 2032.56 489.152C2033.87 487.402 2034.53 485.324 2034.53 482.917C2034.53 479.855 2033.87 476.738 2032.56 473.566L2017.46 435.175H1933.13L1919.02 472.745C1918.04 475.589 1917.55 478.378 1917.55 481.113C1917.55 484.066 1918.42 486.582 1920.17 488.66C1922.03 490.738 1924.38 491.832 1927.23 491.941L1943.96 492.925V510.289C1935.43 510.07 1929.15 510.398 1924.88 510.289C1915.5 510.289 1908.67 510.289 1905.28 510.289H1868ZM1941.34 416.307H2009.75L1974.81 330.994L1941.34 416.307Z" fill="#4215CC"/>
<path d="M2135.61 510.289V491.941L2148.07 490.957C2155.07 490.41 2159.39 489.207 2161.04 487.347C2163.11 485.05 2164.15 475.589 2164.15 458.964V321.97C2164.15 306.985 2163.44 293.071 2162.02 290.227C2160.6 287.384 2155.95 285.634 2148.07 284.977L2136 283.812V270.312C2163 270.312 2180.23 270.312 2188 270.312C2195.66 270.312 2212.89 270.312 2240 270.312V283.812L2227.65 284.977C2220.54 285.524 2216.16 286.727 2214.52 288.587C2212.55 290.993 2211.57 305.454 2211.57 321.97V458.964C2211.57 474.058 2212.28 483.027 2213.7 485.871C2215.12 488.605 2219.77 490.3 2227.65 490.957L2240 491.812V510.312C2215.39 510.312 2197.5 510.289 2187.22 510.289C2176.83 510.289 2160 510.289 2135.61 510.289Z" fill="#4215CC"/>
</svg>
