<svg width="1760" height="360" viewBox="0 0 1760 360" fill="none" xmlns="http://www.w3.org/2000/svg">
<path d="M56.5714 66.0398L48 77.9081C53.3061 82.0006 62.6939 85.6839 72.0816 83.2284C77.7959 87.7301 86.5034 87.0481 90.8571 86.9116C90.1769 94.0053 89.2245 116.869 90.8571 151.573C92.4898 186.278 117.66 209.96 130.041 217.463L119.429 264.936L130.041 312H153.714L144.735 264.936L153.714 217.463L174.122 312H198.204L178.204 217.463H229.633L209.633 312H234.122L254.122 217.463L263.51 264.936L254.122 312H278.612L288 264.936L278.204 217.463C280.245 212.143 281.33 210.065 282.694 204.367C290.041 173.673 276.163 148.845 268 139.705L248.408 119.652C239.837 111.057 225.143 110.648 215.755 118.424C208.854 124.14 204.945 124.456 198.204 118.424C195.347 115.968 188.284 107.68 179.02 100.008C169.633 92.2319 153.306 95.5059 147.184 102.054L119.429 129.883V55.3993L124.8 48C107.113 51.5468 71.102 57.2818 67.1837 58.264C63.2653 59.2462 58.4762 63.8571 56.5714 66.0398Z" fill="white"/>
<path d="M87.543 66.1719L93.2573 60.6693L98.9715 66.1719L93.2573 72.0979L87.543 66.1719Z" fill="#4215CC"/>
<path d="M352 213.713C352 187.988 360.138 166.857 376.413 150.319C384.025 142.531 392.863 136.319 402.926 131.681C419.988 123.893 439.807 120 462.383 120C474.108 120 484.477 120.918 493.489 122.756C502.502 124.506 513.133 127.831 525.384 132.731L526.959 135.619C525.121 143.406 523.065 157.144 520.79 176.832H510.29L508.977 153.731C502.589 147.694 496.771 143.494 491.521 141.131C482.595 137.106 472.489 135.094 461.201 135.094C436.964 135.094 418.632 143.625 406.207 160.688C396.932 173.375 392.294 189.782 392.294 209.907C392.294 233.357 398.332 252.476 410.407 267.264C424.932 285.114 445.014 294.039 470.652 294.039C488.152 294.039 505.608 289.446 523.021 280.258L526.171 283.539L520.265 296.664C512.74 300.777 506.44 303.665 501.364 305.327C488.939 309.44 475.07 311.496 459.758 311.496C437.182 311.496 417.67 307.383 401.219 299.158C389.932 293.558 380.219 285.771 372.082 275.795C358.694 259.345 352 238.651 352 213.713Z" fill="white"/>
<path d="M542.984 311.496V297.714L550.99 296.927C556.853 296.402 561.884 291.021 566.084 280.783L614.778 163.05L630.135 122.493H649.166L718.73 285.114C721.792 292.114 726.736 296.052 733.561 296.927L739.993 297.714V311.496C716.542 310.971 702.577 311.496 697.765 311.496C692.427 311.496 678.611 310.971 656.648 311.496V297.714L670.954 296.927C672.442 296.839 673.667 296.096 674.629 294.696C675.679 293.296 676.204 291.633 676.204 289.708C676.204 287.258 675.679 284.764 674.629 282.227L662.554 251.514H595.091L583.803 281.571C583.016 283.846 582.622 286.077 582.622 288.264C582.622 290.627 583.322 292.639 584.722 294.302C586.209 295.964 588.091 296.839 590.366 296.927L603.753 297.714V311.514C596.928 311.339 591.416 311.59 588.003 311.503C580.741 311.24 575.782 311.496 573.07 311.496H542.984ZM601.653 236.42H656.385L628.429 168.169L601.653 236.42Z" fill="white"/>
<path d="M755.23 311.496V297.714L765.205 296.927C770.455 296.489 773.824 295.396 775.312 293.646C777.149 291.546 778.068 283.846 778.068 270.545V160.95C778.068 148.963 777.412 141.7 776.099 139.162C774.874 136.537 771.243 135.006 765.205 134.569L755.23 133.781V123.806L768.88 124.2C777.806 124.462 782.924 124.593 784.237 124.593H787.518L819.806 123.806C829.956 145.856 836.65 160.294 839.888 167.119L882.413 255.845L931.501 154.125C933.951 149.313 938.37 139.206 944.758 123.806C963.396 124.331 973.677 124.593 975.602 124.593C977.614 124.593 988.027 124.331 1006.84 123.806V133.781L996.865 134.569C991.615 135.006 988.202 136.1 986.627 137.85C984.877 139.95 984.002 147.65 984.002 160.95V270.545C984.002 282.621 984.571 289.796 985.708 292.071C986.846 294.258 990.565 295.614 996.865 296.139L1006.84 296.927V311.496C986.802 310.971 973.003 311.496 965.128 311.496C957.165 311.496 943.095 310.971 923.233 311.496V296.927L933.208 296.139C938.808 295.702 942.264 294.739 943.577 293.252C945.239 291.414 946.07 283.846 946.07 270.545V158.719L890.682 274.089C883.682 288.614 878.301 300.427 874.538 309.527H865.482C860.757 298.327 857.519 290.889 855.769 287.214L793.95 158.456V270.545C793.95 282.533 794.562 289.839 795.787 292.464C797.012 295.002 800.687 296.489 806.812 296.927L816.787 297.714V311.496C800.859 311.496 791.001 311.496 785.926 311.496C780.763 311.496 770.893 310.971 755.23 311.496Z" fill="white"/>
<path d="M1027.47 133.781V123.806C1051.45 124.331 1068.33 124.593 1078.13 124.593C1086.36 124.593 1098 124.418 1113.05 124.068C1125.91 123.806 1135.58 123.675 1142.05 123.675C1150.98 123.675 1159.47 123.981 1167.52 124.593L1169.09 126.431L1165.42 164.756H1155.7L1153.6 144.544C1153.43 143.144 1150.8 141.962 1145.73 141C1140.74 139.95 1134.66 139.425 1127.49 139.425C1113.57 139.425 1100.49 139.687 1088.24 140.212V204.788C1092.79 205.138 1098.78 205.313 1106.22 205.313H1123.94C1129.72 205.313 1133.65 204.92 1135.75 204.132C1137.85 203.344 1139.04 201.857 1139.3 199.669L1140.87 184.313H1151.64C1151.55 188.601 1151.46 191.838 1151.37 194.026C1151.02 202.863 1150.85 208.245 1150.85 210.17C1150.85 211.657 1150.85 212.62 1150.85 213.057L1151.64 242.064H1140.87L1139.3 228.676C1138.86 225.089 1137.46 222.551 1135.1 221.063C1132.74 219.488 1129.02 218.701 1123.94 218.701H1106.22C1100.88 218.701 1094.89 218.963 1088.24 219.488V291.283C1101.37 291.983 1113.14 292.333 1123.55 292.333C1137.02 292.333 1147.39 290.977 1154.65 288.264C1155.09 288.089 1155.35 287.871 1155.44 287.608L1161.61 262.277H1172.11L1169.09 304.802L1168.33 311.625C1155.82 312.413 1142.19 311.714 1129.5 311.714C1116.2 311.714 1101.77 312.13 1086.2 311.605C1078.93 311.343 1073.22 311.496 1069.02 311.496C1062.99 311.496 1052.41 310.971 1036.4 311.496V301.521L1044.93 296.664C1048.52 294.652 1050.31 289.533 1050.31 281.308V160.95C1050.31 148.963 1049.65 141.7 1048.34 139.162C1047.12 136.625 1043.48 135.094 1037.45 134.569L1027.47 133.781Z" fill="white"/>
<path d="M1191.8 134.569V123.806C1213.41 124.331 1227.32 124.593 1233.54 124.593C1239.66 124.593 1253.62 124.331 1275.41 123.806V134.569L1265.43 135.356C1259.74 135.794 1256.24 136.756 1254.93 138.244C1253.36 140.169 1252.57 147.738 1252.57 160.95V291.283C1265.26 291.983 1277.02 292.333 1287.87 292.333C1301.61 292.333 1311.98 290.977 1318.98 288.264C1319.42 288.089 1319.68 287.871 1319.77 287.608L1325.94 260.176H1336L1333.42 304.802L1331.85 311.605C1319.34 312.393 1306.46 311.605 1293.77 311.605C1280.47 311.605 1266.79 312.13 1251.21 311.605C1243.95 311.343 1237.49 311.605 1233.29 311.605C1227.25 311.605 1216.74 311.08 1200.72 311.605V301.521L1209.26 296.664C1212.84 294.652 1214.64 289.577 1214.64 281.439V160.95C1214.64 148.963 1214.07 141.831 1212.93 139.556C1211.79 137.281 1208.07 135.881 1201.77 135.356L1191.8 134.569Z" fill="white"/>
<path d="M1344 223.548C1344.74 221.358 1345.52 219.063 1346.36 216.665C1347.78 212.754 1348.84 209.599 1349.52 207.2H1404.98L1406.4 208.842C1403.88 214.683 1402.17 220.002 1401.28 224.8H1345.26L1344 223.548Z" fill="white"/>
<path d="M1414.4 311.981V298.09L1422.41 297.303C1428.27 296.778 1433.3 291.396 1437.5 281.159L1486.19 163.426L1501.6 120H1520.8L1590.15 285.49C1593.21 292.49 1598.15 296.428 1604.98 297.303L1611.41 298.09V311.981C1588 311.981 1573.73 311.981 1568.92 311.981C1563.58 311.981 1549.6 311.981 1528.06 311.981V298.09L1542.37 297.303C1543.86 297.215 1545.08 296.471 1546.04 295.071C1547.09 293.671 1547.62 292.009 1547.62 290.084C1547.62 287.634 1547.09 285.14 1546.04 282.602L1533.97 251.889H1466.51L1455.22 281.946C1454.43 284.221 1454.04 286.452 1454.04 288.64C1454.04 291.003 1454.74 293.015 1456.14 294.678C1457.63 296.34 1459.51 297.215 1461.78 297.303L1475.17 298.09V311.981C1468.34 311.806 1463.32 312.068 1459.9 311.981C1452.4 311.981 1446.94 311.981 1444.22 311.981H1414.4ZM1473.07 236.796H1527.8L1499.84 168.545L1473.07 236.796Z" fill="white"/>
<path d="M1628.48 311.981V297.303L1638.46 296.515C1644.06 296.078 1647.52 295.115 1648.83 293.628C1650.49 291.79 1651.32 284.221 1651.32 270.921V161.326C1651.32 149.338 1650.75 138.207 1649.62 135.932C1648.48 133.657 1644.76 132.257 1638.46 131.732L1628.8 130.8V120C1650.4 120 1664.19 120 1670.4 120C1676.52 120 1690.31 120 1712 120V130.8L1702.12 131.732C1696.43 132.169 1692.93 133.132 1691.62 134.619C1690.04 136.544 1689.25 148.113 1689.25 161.326V270.921C1689.25 282.996 1689.82 290.171 1690.96 292.446C1692.1 294.634 1695.82 295.99 1702.12 296.515L1712 297.2V312C1692.31 312 1678 311.981 1669.77 311.981C1661.46 311.981 1648 311.981 1628.48 311.981Z" fill="white"/>
</svg>
